<svg width="40" height="40" fill="none" xmlns="http://www.w3.org/2000/svg"><path d="M15.679 9.225a.747.747 0 00-.525-.166h-2.882l2.691-3.063.252-.285.164-.202a.93.93 0 00.109-.208.707.707 0 00.048-.25.524.524 0 00-.253-.5 1.496 1.496 0 00-.715-.139h-3.373a.726.726 0 00-.497.153.518.518 0 00-.178.41c0 .236.078.38.232.43.222.064.451.093.681.084h2.181c-.09.13-.209.282-.354.458l-.546.653-.735.833-.88.994a38.49 38.49 0 00-.599.694.662.662 0 00.04.917c.18.138.403.205.628.188h3.98a.763.763 0 00.53-.16.533.533 0 00.178-.41.561.561 0 00-.177-.43zm6.03 3.529a.591.591 0 00-.422-.132h-2.304l2.147-2.445.204-.23.13-.159a.73.73 0 00.088-.167.565.565 0 00.041-.201.42.42 0 00-.198-.403 1.193 1.193 0 00-.572-.111h-2.698a.585.585 0 00-.395.125.413.413 0 00-.143.326c0 .186.06.301.183.348.178.05.362.07.546.062h1.744a4.123 4.123 0 01-.286.368l-.45.514-.586.695-.681.792a10.83 10.83 0 00-.484.57c-.16.21-.14.509.048.694a.73.73 0 00.497.146h3.175a.612.612 0 00.423-.125.427.427 0 00.136-.327.448.448 0 00-.143-.34zm7.134-3.938a.747.747 0 00-.525-.167H25.43l2.692-3.063.252-.285.163-.201a.926.926 0 00.11-.209.707.707 0 00.047-.25.524.524 0 00-.252-.5 1.495 1.495 0 00-.715-.139h-3.373a.726.726 0 00-.498.153.518.518 0 00-.177.41c0 .236.077.38.232.43.221.065.451.093.681.084h2.18a6.85 6.85 0 01-.354.458l-.558.674-.736.833-.88.994a38.49 38.49 0 00-.599.694.662.662 0 00.061.896c.18.138.403.205.627.188h3.98c.19.015.38-.042.531-.16a.533.533 0 00.177-.41.561.561 0 00-.177-.43zm9.185 16.692a5.593 5.593 0 00-.336-.269V24.6c-.007-5.529-4.395-10.014-9.819-10.036h-15.78c-5.446-.012-9.87 4.478-9.88 10.03v.701c-2.46 1.9-2.942 5.472-1.078 7.979 1.865 2.507 5.37 2.998 7.828 1.098.073-.056.143-.114.213-.173 3.986 1.247 8.31-.207 10.786-3.626 2.488 3.434 6.836 4.886 10.835 3.619a5.514 5.514 0 007.875-.656c1.997-2.398 1.709-5.992-.644-8.028zM5.544 34.185c-2.337 0-4.231-1.931-4.231-4.313 0-1.11.42-2.177 1.172-2.98.675 2.907 2.582 5.357 5.206 6.689a4.15 4.15 0 01-2.147.604zm22.316-.938c-3.008-.007-5.788-1.638-7.305-4.285l-.02.007a.674.674 0 00-1.18 0c-2.366 4.121-7.563 5.506-11.606 3.093-4.043-2.413-5.402-7.71-3.035-11.831 1.532-2.668 4.345-4.3 7.378-4.278h15.809c4.685.011 8.474 3.892 8.462 8.668-.01 4.776-3.818 8.638-8.503 8.626zm9.545-.297a4.19 4.19 0 01-2.963 1.235 4.138 4.138 0 01-2.167-.618c2.622-1.343 4.522-3.804 5.186-6.717 1.636 1.7 1.612 4.431-.056 6.1z" fill="#fff"/></svg>