<svg width="40" height="40" fill="none" xmlns="http://www.w3.org/2000/svg"><path d="M35.561 10.275a.677.677 0 00-.922-.243l-3.297 1.895a.67.67 0 00-.244.918c.188.32.6.43.923.243l3.296-1.895a.67.67 0 00.244-.918zm-.244 17.535l-3.296-1.894a.677.677 0 00-.923.243.67.67 0 00.244.918l3.297 1.895a.677.677 0 00.922-.243.67.67 0 00-.244-.918zm-15.765 4.956a.677.677 0 00-.727.723v3.786a.676.676 0 00.627.723.677.677 0 00.727-.723v-3.786a.676.676 0 00-.627-.723zM7.658 11.927l-3.296-1.895a.677.677 0 00-.923.243.67.67 0 00.244.918l3.296 1.895a.677.677 0 00.923-.243.67.67 0 00-.244-.918zM19.552 1.002a.677.677 0 00-.727.723v3.786a.677.677 0 001.354-.003V1.725a.676.676 0 00-.627-.723zM13.05 7.047l-1.902-3.279a.677.677 0 00-.923-.242.67.67 0 00-.244.917l1.901 3.279c.188.32.6.429.923.243a.67.67 0 00.244-.918zm6.55 6.463a.674.674 0 00-.1 0c-3.326 0-6.022 2.682-6.022 5.99a.677.677 0 001.354 0c-.002-2.562 2.084-4.641 4.66-4.643h.008a.676.676 0 10.1-1.346zm18.398 5.938a.677.677 0 00-.626-.623h-3.807a.677.677 0 00-.727.623.676.676 0 00.727.723h3.807a.676.676 0 00.626-.723zm-32.462-.619a.648.648 0 00-.1 0H1.627a.676.676 0 00-.626.723.677.677 0 00.626.623h3.807a.676.676 0 10.1-1.346z" fill="#fff"/><path d="M19.503 9.595c-5.5-.001-9.96 4.433-9.961 9.904a9.879 9.879 0 002.918 7.007 9.953 9.953 0 007.04 2.9c5.5 0 9.96-4.434 9.96-9.904.002-5.471-4.457-9.907-9.957-9.907zm6.082 15.969c-3.36 3.342-8.81 3.342-12.17 0a8.537 8.537 0 01-2.52-6.064 8.507 8.507 0 012.52-6.052v.01c3.36-3.342 8.81-3.342 12.17 0a8.526 8.526 0 010 12.106zm3.436 8.996l-.002-.003-1.905-3.279a.677.677 0 00-.923-.242.67.67 0 00-.244.917l1.905 3.279c.187.32.599.43.921.245a.67.67 0 00.248-.917zM7.902 26.155a.677.677 0 00-.923-.243l-3.296 1.895a.67.67 0 00-.244.918c.187.32.6.43.923.243l3.296-1.895a.67.67 0 00.244-.918z" fill="#fff"/><path fill-rule="evenodd" clip-rule="evenodd" d="M30.188 2.413c.327.197.43.62.233.944L9.879 37.067a.693.693 0 01-.948.232.685.685 0 01-.233-.944l20.541-33.71a.693.693 0 01.95-.232z" fill="#fff"/></svg>