<svg width="40" height="40" fill="none" xmlns="http://www.w3.org/2000/svg"><path d="M29.018 23.838a.593.593 0 00.585-.6v-.276c0-.331-.262-.6-.585-.6a.593.593 0 00-.586.6v.276c0 .332.262.6.586.6zm3.795 1.612c.15 0 .3-.058.415-.176l.19-.194a.611.611 0 000-.85.576.576 0 00-.83 0l-.189.195a.611.611 0 000 .85.577.577 0 00.414.175zm1.841 3.892a.593.593 0 00.586-.6.594.594 0 00-.586-.602h-.269a.593.593 0 00-.585.601c0 .332.262.6.586.6h.268zM23.381 28.14a.593.593 0 00-.586.601c0 .332.262.6.586.6h.269a.593.593 0 00.585-.6c0-.332-.262-.6-.585-.6h-.269zm9.018 4.917l.19.195a.577.577 0 00.828 0 .611.611 0 000-.85l-.19-.194a.576.576 0 00-.828 0 .611.611 0 000 .85zm-3.967 1.188v.275c0 .332.262.6.586.6a.593.593 0 00.585-.6v-.275a.593.593 0 00-.585-.601.593.593 0 00-.586.6zm-3.625-2.037l-.19.195a.611.611 0 000 .85.577.577 0 00.83-.001l.19-.195a.611.611 0 00-.001-.85.576.576 0 00-.829 0zm.829-7.783l-.19-.195a.576.576 0 00-.828 0 .611.611 0 000 .85l.19.194a.577.577 0 00.828 0 .611.611 0 000-.85z" fill="#fff"/><path d="M37.113 22.027a.61.61 0 00-.133.84 10.156 10.156 0 011.848 5.874c0 5.546-4.401 10.058-9.81 10.058-5.41 0-9.81-4.512-9.81-10.058s4.4-10.058 9.81-10.058a9.66 9.66 0 016.474 2.503.576.576 0 00.827-.055.611.611 0 00-.053-.848 10.849 10.849 0 00-5.669-2.684c.059-2.083-.168-4.228-.638-5.966a1.626 1.626 0 01.4-1.554l.598-.614c.805-.825.839-2.128.077-2.966a2.028 2.028 0 00-1.476-.675c-.992-.018-1.55.686-1.586.71a1.53 1.53 0 01-1.79.302C22.183 4.831 14.786 4.411 8.976 5.86a.602.602 0 00-.43.726c.076.322.393.52.707.441 2.616-.652 5.712-.934 8.716-.79 3.1.147 5.834.743 7.699 1.679 1.05.526 2.31.313 3.133-.532.045-.034.275-.372.737-.36a.88.88 0 01.639.294c.324.356.302.938-.048 1.297l-.6.614a2.85 2.85 0 00-.7 2.725c.435 1.606.647 3.594.599 5.536a10.773 10.773 0 00-.41-.008c-5.336 0-9.795 3.922-10.78 9.102-4.532.233-9.332-.473-12.342-1.828a2.687 2.687 0 00-3.012.59l-.187.19a.88.88 0 01-1.264 0 .934.934 0 010-1.296l.487-.499a2.852 2.852 0 00.704-2.707c-.686-2.6-.624-6.302.15-9.002a2.85 2.85 0 00-.687-2.772l-.654-.67a.934.934 0 010-1.297.88.88 0 011.264 0l.284.291a2.681 2.681 0 003.088.554c.311-.15.65-.297 1.009-.434a.605.605 0 00.343-.774.582.582 0 00-.754-.351c-.389.149-.758.308-1.098.472a1.527 1.527 0 01-1.76-.316l-.283-.292a2.033 2.033 0 00-2.922 0 2.159 2.159 0 000 2.996l.654.67c.403.413.552 1.02.39 1.584-.828 2.892-.892 6.862-.155 9.654a1.626 1.626 0 01-.402 1.544l-.487.5a2.159 2.159 0 000 2.995 2.033 2.033 0 002.922 0l.186-.191a1.528 1.528 0 011.713-.339c2.8 1.26 6.873 1.976 11.026 1.976.541 0 1.083-.013 1.624-.038-.026.312-.04.628-.04.947C18.036 34.949 22.963 40 29.019 40 35.073 40 40 34.949 40 28.74c0-2.378-.715-4.653-2.069-6.577a.577.577 0 00-.818-.136z" fill="#fff"/><path d="M28.432 27.456l-.4-.342a.576.576 0 00-.825.076.611.611 0 00.074.846l1.361 1.166c.378.324.962.051.962-.46V25.41a.594.594 0 00-.586-.601.593.593 0 00-.586.6v2.046zm5.092-10.823h1.646a.593.593 0 00.586-.6.594.594 0 00-.586-.601h-.53l.946-1.407a.613.613 0 00.036-.62.584.584 0 00-.519-.321h-1.538a.593.593 0 00-.586.6c0 .332.262.601.586.601h.422l-.946 1.407c-.268.398.011.941.483.941zm3.697-1.863h2.193a.593.593 0 00.586-.6c0-.332-.263-.6-.586-.6h-1.077l1.47-2.187a.613.613 0 00.037-.62.584.584 0 00-.519-.322h-2.049a.593.593 0 00-.586.6c0 .333.263.601.586.601h.933l-1.47 2.187c-.268.398.01.942.482.942z" fill="#fff"/><path d="M26.059 36.116c-.1.316.068.655.376.757a8.148 8.148 0 002.583.419c4.599 0 8.34-3.836 8.34-8.55 0-4.716-3.741-8.552-8.34-8.552-4.6 0-8.34 3.836-8.34 8.551 0 2.759 1.309 5.363 3.503 6.967.264.193.63.13.817-.14a.61.61 0 00-.137-.838c-1.886-1.379-3.012-3.618-3.012-5.989 0-4.052 3.216-7.35 7.169-7.35 3.953 0 7.168 3.298 7.168 7.35 0 4.053-3.215 7.35-7.168 7.35a7.004 7.004 0 01-2.22-.36.583.583 0 00-.739.385z" fill="#fff"/></svg>