<svg width="190" height="44" fill="none" xmlns="http://www.w3.org/2000/svg"><g clip-path="url(#clip0)" fill="#fff"><path d="M15.43 41.226a3.706 3.706 0 01-.707 1.07 4.733 4.733 0 01-.973.788 5.02 5.02 0 01-1.071.496 8.367 8.367 0 01-2.07.359c-.764.04-1.503.061-2.215.061H0v-.21c.406-.056.79-.148 1.155-.271.364-.128.66-.302.889-.527a.826.826 0 00.192-.369c.047-.158.094-.348.135-.558.042-.21.068-.43.084-.66.015-.23.026-.46.026-.68 0-.195.005-.461.01-.799.01-.338.016-.706.026-1.105.01-.4.01-.81.01-1.229v-3.26c0-.307-.005-.624-.01-.947-.01-.322-.01-.69-.01-1.116 0-.25-.01-.506-.026-.767a8.214 8.214 0 00-.084-.747 5.39 5.39 0 00-.145-.64c-.057-.19-.135-.328-.234-.41a1.99 1.99 0 00-.728-.45c-.245-.077-.583-.138-1.025-.18v-.21h8.201c.62 0 1.207.032 1.763.093a8.07 8.07 0 011.618.348c.827.266 1.508.67 2.043 1.218.536.548.801 1.239.801 2.078 0 .927-.343 1.669-1.035 2.237-.691.568-1.586.947-2.688 1.146v.082c.582.056 1.16.18 1.726.368a5.65 5.65 0 011.524.768 3.95 3.95 0 011.071 1.147c.266.44.4.941.4 1.504a3.12 3.12 0 01-.26 1.372zm-4.15-10.482a3.521 3.521 0 00-1.545-1.177c-.728-.281-1.664-.42-2.798-.42-.343 0-.65.016-.925.041-.276.031-.49.062-.635.108a8.922 8.922 0 01-.046.23 2.453 2.453 0 00-.037.261c-.01.108-.015.236-.026.39-.01.153-.02.357-.036.608a69.11 69.11 0 00-.037 1.618c-.01.588-.01 1.146-.01 1.678v2.016h1.362c.375 0 .671-.004.9-.02 1.461-.071 2.57-.425 3.323-1.07.754-.644 1.134-1.443 1.134-2.395a2.99 2.99 0 00-.624-1.868zm1.342 8.205a3.648 3.648 0 00-.635-.988 3.916 3.916 0 00-.952-.778 5.205 5.205 0 00-1.206-.517 6.659 6.659 0 00-1.061-.2c-.348-.036-.76-.051-1.227-.051H5.185v2.626c0 .394.005.752.01 1.08.01.327.01.614.01.85.016.531.048.972.084 1.315.042.342.156.624.354.85.145.153.364.28.655.388.291.102.712.159 1.264.159.468 0 .982-.026 1.534-.082a5.146 5.146 0 001.607-.44c.68-.307 1.206-.717 1.58-1.229.375-.512.562-1.126.562-1.837a2.821 2.821 0 00-.223-1.146zM34.276 44H18.65v-.21a7.733 7.733 0 001.206-.271c.396-.128.708-.302.937-.527a.951.951 0 00.208-.369 3.4 3.4 0 00.135-.558c.031-.21.062-.43.083-.66a6.1 6.1 0 00.036-.68c0-.195.006-.461.01-.799.011-.338.016-.706.027-1.105.01-.4.01-.81.01-1.229v-6.029c0-.25-.01-.486-.036-.706a3.98 3.98 0 00-.11-.578.874.874 0 00-.218-.4c-.229-.24-.53-.42-.915-.547a5.422 5.422 0 00-1.207-.251v-.21h7.765v.21c-.213.03-.463.072-.754.128a3.47 3.47 0 00-.827.271 1.99 1.99 0 00-.671.537c-.187.23-.286.538-.307.917-.015.49-.026.936-.036 1.346-.01.404-.016.803-.026 1.197-.01.394-.01.799-.01 1.218v3.829c0 .363.004.737.01 1.126.01.383.01.813.01 1.29.016.45.037.875.063 1.279.026.404.109.706.254.906.063.072.193.138.39.21.193.071.432.128.708.179.275.051.577.092.9.128.322.036.65.05.972.05.13 0 .338-.004.619-.01a22.293 22.293 0 001.981-.132c.359-.041.67-.098.952-.17.65-.153 1.19-.358 1.617-.608a4.852 4.852 0 001.108-.87c.307-.328.567-.686.78-1.07.208-.384.416-.788.608-1.208l.245.061-.89 4.315zm14.312 0v-.205c.047 0 .161-.015.349-.04a3.22 3.22 0 00.572-.144c.197-.066.374-.164.525-.287a.588.588 0 00.229-.475c0-.123-.042-.328-.13-.61a17.823 17.823 0 00-.37-1.028 76.666 76.666 0 00-1.222-2.897h-6.35c-.239.522-.468 1.018-.691 1.494-.224.476-.447.952-.671 1.433-.333.742-.5 1.264-.5 1.566 0 .18.063.328.193.446.125.117.291.215.49.286.197.077.415.133.644.164.229.036.447.067.655.092V44h-5.086v-.225c.416-.041.77-.138 1.061-.287.296-.148.468-.256.515-.307.11-.097.296-.322.551-.68.255-.359.567-.886.931-1.587.333-.645.707-1.382 1.123-2.206.416-.824.838-1.674 1.28-2.544.437-.87.873-1.75 1.3-2.636.431-.885.837-1.714 1.217-2.482l-.24-.455c.286-.108.547-.24.775-.39a4.515 4.515 0 001.05-.951c.12-.149.214-.277.276-.369h.193c.494 1.142.962 2.221 1.41 3.245a600.92 600.92 0 011.279 2.958c.405.947.8 1.863 1.18 2.754.38.885.765 1.76 1.144 2.625.177.425.338.778.489 1.06.15.281.322.599.515.957a2.915 2.915 0 00.655.711c.182.144.41.272.681.384.27.108.588.174.957.184v.246h-6.979V44zm-3.125-12.488a25.4 25.4 0 00-.416.844c-.182.384-.411.855-.682 1.403-.27.547-.567 1.172-.894 1.863l-1.061 2.257h5.944a202.242 202.242 0 00-1.633-3.634c-.265-.568-.499-1.09-.717-1.566-.219-.476-.4-.865-.541-1.167zm26.392 2.416a6.542 6.542 0 00-.925-1.843 7 7 0 00-1.457-1.494 6.902 6.902 0 00-1.898-1.004 6.747 6.747 0 00-2.241-.368c-1.092 0-2.065.21-2.918.635a6.531 6.531 0 00-2.147 1.678 7.575 7.575 0 00-1.327 2.365 8.193 8.193 0 00-.462 2.712c0 .983.16 1.904.483 2.764.323.86.785 1.607 1.389 2.242a6.514 6.514 0 002.184 1.505c.853.368 1.805.553 2.845.553.821 0 1.59-.129 2.314-.39a7.272 7.272 0 001.919-1.023 6.593 6.593 0 001.425-1.464c.385-.553.65-1.12.795-1.71h.286l-.072 4.505h-.286a6.389 6.389 0 00-.593-.635c-.208-.19-.349-.287-.427-.287-.03 0-.171.072-.426.215a7.371 7.371 0 01-1.092.471c-.474.169-1.05.323-1.732.45-.681.129-1.461.195-2.345.195-1.472 0-2.798-.18-3.984-.542-1.186-.364-2.195-.876-3.021-1.536a6.706 6.706 0 01-1.91-2.375c-.441-.921-.665-1.934-.665-3.04a6.673 6.673 0 01.27-1.842c.105-.353.245-.727.427-1.116.182-.389.416-.783.702-1.177a7.725 7.725 0 011.233-1.33 7.809 7.809 0 011.732-1.117 10.426 10.426 0 012.251-.767c.838-.19 1.779-.287 2.824-.287.947 0 1.779.077 2.491.225a12.19 12.19 0 011.779.491c.473.18.837.343 1.092.492.255.148.395.225.426.225.032 0 .089-.03.177-.092a4.206 4.206 0 00.609-.532c.109-.118.213-.236.306-.359h.26v4.586l-.29.02zM88.133 44a1.164 1.164 0 01-.219-.118 1.37 1.37 0 01-.265-.22 2561.28 2561.28 0 00-2.959-2.953c-.93-.931-1.903-1.873-2.907-2.825-.421-.404-.713-.66-.863-.758-.156-.097-.286-.148-.4-.148-.13 0-.214.026-.256.072a1.18 1.18 0 00-.135.24v2.078c0 .645.01 1.198.026 1.658.016.405.047.783.099 1.137.047.348.156.614.317.798.115.138.265.261.463.358.192.098.406.18.634.24a6.913 6.913 0 001.243.22v.21h-7.81v-.21a7.76 7.76 0 001.17-.25c.374-.112.655-.266.852-.46.084-.082.146-.21.193-.38a3.85 3.85 0 00.109-.578 7.34 7.34 0 00.047-.69c.01-.246.01-.482.01-.707 0-.194.005-.46.01-.798.01-.338.01-.701.01-1.09v-6.557a15.9 15.9 0 00-.061-1.468c-.042-.45-.151-.773-.328-.968a2.057 2.057 0 00-.827-.527 4.826 4.826 0 00-1.118-.23v-.21h7.546v.21a12 12 0 00-.9.117 1.874 1.874 0 00-.78.318c-.229.163-.416.404-.572.727-.156.322-.24.777-.255 1.366-.015.323-.031.624-.036.906-.01.281-.01.604-.01.967v3.26c.29-.153.686-.414 1.18-.788a37.535 37.535 0 001.56-1.248 60.14 60.14 0 001.617-1.428 256.2 256.2 0 001.389-1.28c.276-.281.525-.568.744-.86.218-.291.327-.558.327-.798 0-.405-.161-.701-.489-.88a3.048 3.048 0 00-1.118-.359v-.21h6.522v.21c-.827.072-1.665.374-2.507.906a28.177 28.177 0 00-2.58 1.848c-.343.266-.691.553-1.045.86-.358.307-.712.614-1.06.926-.349.307-.692.604-1.025.89-.333.287-.64.558-.915.81.13.137.431.444.9.915.467.471 1.029 1.019 1.68 1.648.65.63 1.34 1.305 2.08 2.017.738.716 1.445 1.402 2.131 2.057.162.17.349.338.562.507.208.169.416.317.609.45.192.133.364.251.51.348.145.098.244.154.29.17.209.07.5.138.864.21.364.07.775.117 1.227.148v.21h-5.481V44zm24.234-9.325a3.86 3.86 0 01-.764 1.11 4.705 4.705 0 01-1.103.83c-.421.23-.848.414-1.284.557a8.917 8.917 0 01-1.457.313 22.84 22.84 0 01-3.104.21h-1.311v1.97c0 .235.005.456.011.66.005.205.01.425.01.66.016.446.031.83.047 1.152.015.322.104.589.265.798.13.18.38.364.754.543.375.18.889.287 1.555.312V44h-7.77v-.21a7.69 7.69 0 001.165-.25c.37-.113.666-.282.874-.502a.899.899 0 00.193-.379 4.07 4.07 0 00.109-.568c.026-.21.047-.435.062-.67.016-.236.026-.466.026-.691 0-.195.005-.461.011-.799.005-.338.015-.701.026-1.1.005-.4.01-.809.01-1.229v-5.297c0-.25-.005-.506-.01-.762a15.418 15.418 0 00-.047-.732 3.593 3.593 0 00-.12-.63.896.896 0 00-.229-.41c-.244-.224-.556-.373-.936-.45-.38-.076-.79-.143-1.227-.2v-.204h.582c.307 0 .666-.005 1.082-.01.411-.005.863-.01 1.347-.01s.967-.005 1.446-.01c.478-.006.925-.01 1.347-.01h1.092c1.066 0 2.012.045 2.839.137a7.207 7.207 0 012.33.66c.713.333 1.3.81 1.773 1.423.468.614.702 1.341.702 2.18a3.401 3.401 0 01-.296 1.398zm-3.047-3.665a4.392 4.392 0 00-1.883-1.423 5.158 5.158 0 00-1.238-.312 10.618 10.618 0 00-1.357-.081c-.338 0-.603.01-.791.03-.187.02-.338.041-.447.051a1.08 1.08 0 01-.062.22 1.092 1.092 0 00-.063.241 6.472 6.472 0 00-.046.41 17.95 17.95 0 00-.047.741c-.016.492-.026 1.086-.037 1.782-.01.7-.01 1.382-.01 2.052v2.682c.666 0 1.285-.015 1.867-.051a7.062 7.062 0 001.628-.282c1.035-.307 1.83-.814 2.376-1.52.552-.706.827-1.5.827-2.38a3.47 3.47 0 00-.717-2.16zM129.217 44h-14.894v-.21a5.815 5.815 0 001.133-.271 2.36 2.36 0 00.863-.527.82.82 0 00.193-.369c.047-.158.094-.348.135-.558.042-.21.068-.43.083-.66.016-.23.026-.46.026-.68 0-.195.006-.461.011-.799.01-.338.015-.706.026-1.105.01-.4.01-.81.01-1.229v-5.318c0-.25-.005-.511-.01-.777a16.593 16.593 0 00-.047-.758 3.452 3.452 0 00-.12-.64c-.057-.189-.135-.327-.234-.41a1.69 1.69 0 00-.78-.429 12.236 12.236 0 00-1.071-.18v-.209h13.438l1.654 3.465-.245.107c-1.315-1.412-2.548-2.37-3.697-2.855-.276-.113-.785-.21-1.534-.292a25.421 25.421 0 00-3.786-.097c-.364.02-.63.046-.791.071-.031.225-.062.686-.083 1.387a67.352 67.352 0 00-.036 2.436v1.346c0 .364.005.66.01.896.01.23.01.41.01.538v.23h.489c.245 0 .525-.005.838-.02.317-.016.634-.031.951-.052.317-.02.583-.051.791-.092.489-.097.894-.23 1.217-.4.322-.168.587-.368.79-.608a3 3 0 00.489-.83 8.9 8.9 0 00.328-1.059h.291v6.618h-.291a6.39 6.39 0 00-.599-1.387c-.265-.476-.546-.834-.837-1.07a3.334 3.334 0 00-.936-.48 4.59 4.59 0 00-1.279-.231 20.412 20.412 0 00-.609-.03 13.002 13.002 0 00-.489-.011h-1.123a5.883 5.883 0 00-.047.86v2.523c0 .225.006.44.011.64.01.204.01.373.01.517.016.45.047.87.083 1.269.042.4.136.696.281.89.146.195.494.338 1.046.42.551.082 1.154.128 1.799.128.276 0 .629-.005 1.061-.02.431-.016.879-.052 1.352-.103a5.9 5.9 0 001.435-.327 5.236 5.236 0 001.264-.681 7.345 7.345 0 001.18-1.08 14.3 14.3 0 001.181-1.546l.27.062L129.217 44zm14.187 0v-.205c.046 0 .161-.015.348-.04.182-.026.374-.077.572-.144.198-.066.374-.164.525-.287a.588.588 0 00.229-.475c0-.123-.042-.328-.13-.61a17.504 17.504 0 00-.369-1.028 80.949 80.949 0 00-.551-1.352 77.866 77.866 0 00-.671-1.545h-6.35c-.239.522-.468 1.018-.692 1.494-.223.476-.447.952-.671 1.433-.332.742-.499 1.264-.499 1.566 0 .18.063.328.193.446.124.117.291.215.488.286.198.077.416.133.645.164.229.036.453.067.656.092V44h-5.087v-.225a2.96 2.96 0 001.061-.287c.297-.148.468-.256.515-.307.109-.097.297-.322.551-.68.255-.359.567-.886.931-1.587.333-.645.708-1.382 1.124-2.206.416-.824.837-1.674 1.279-2.544.437-.87.874-1.75 1.3-2.636.432-.885.837-1.714 1.217-2.482l-.239-.455c.286-.108.546-.24.775-.39a4.566 4.566 0 001.05-.951c.12-.149.213-.277.276-.369h.192a883.47 883.47 0 001.41 3.245c.447 1.024.873 2.012 1.279 2.958.405.947.801 1.863 1.18 2.754.38.885.765 1.76 1.144 2.625.177.425.339.778.489 1.06l.515.957a2.948 2.948 0 00.655.711c.182.144.411.272.682.384.27.108.587.174.957.184v.246h-6.979V44zm-3.131-12.488a25.4 25.4 0 00-.416.844c-.182.384-.411.855-.681 1.403-.271.547-.567 1.172-.895 1.863l-1.061 2.257h5.944a204.98 204.98 0 00-1.633-3.634c-.265-.568-.499-1.09-.717-1.566-.219-.476-.396-.865-.541-1.167zM166.062 44c-.146-.128-.25-.22-.317-.282-.068-.06-.141-.138-.219-.22a3.092 3.092 0 01-.301-.368c-.12-.159-.312-.404-.572-.722a54.515 54.515 0 01-.817-1.06 32.423 32.423 0 00-.717-.93c-.245-.308-.505-.62-.791-.932a31.797 31.797 0 00-1.009-1.06 8.913 8.913 0 00-1.055-.9 2.72 2.72 0 00-1.202-.522 4.16 4.16 0 00-.707-.082 8.65 8.65 0 01-.562-.02v2.369a52.416 52.416 0 00.073 2.85c.016.323.104.59.265.8.13.183.38.368.754.557.375.19.89.297 1.555.328v.21h-7.78v-.21a7.545 7.545 0 001.165-.251c.375-.113.666-.282.874-.502.083-.082.146-.21.192-.379.047-.169.084-.358.11-.568a12.262 12.262 0 00.088-1.361c0-.195.005-.46.01-.798.011-.338.016-.702.026-1.1.011-.4.011-.81.011-1.23v-5.321c0-.25-.005-.507-.011-.768-.01-.26-.026-.501-.046-.737a3.592 3.592 0 00-.12-.63c-.057-.189-.135-.327-.229-.409a1.868 1.868 0 00-.816-.45 9.537 9.537 0 00-1.108-.2v-.21h.999c.551 0 1.175-.005 1.872-.01.697-.005 1.393-.01 2.09-.01h1.701c1.087 0 2.049.03 2.891.082a6.478 6.478 0 012.309.568c.713.322 1.29.758 1.727 1.31.437.553.655 1.249.655 2.088 0 .517-.109.983-.327 1.398a3.71 3.71 0 01-.874 1.09 5.553 5.553 0 01-1.274.808 10.67 10.67 0 01-1.529.568v.062a3.1 3.1 0 01.801.548c.26.235.509.501.754.798a270.994 270.994 0 002.699 3.357c.598.727 1.18 1.26 1.752 1.597.567.338 1.233.553 1.992.65v.21h-4.982V44zm-2.403-13.072c-.405-.547-.998-.977-1.773-1.3a6.025 6.025 0 00-1.227-.337 8.2 8.2 0 00-1.347-.108c-.338 0-.619.005-.827.02-.213.016-.374.031-.484.042a4.001 4.001 0 01-.046.22 1.2 1.2 0 00-.037.24c-.01.098-.016.236-.026.41-.01.174-.021.425-.036.747a66.562 66.562 0 00-.037 1.658c-.01.614-.01 1.208-.01 1.781v2.308c.666 0 1.284-.025 1.862-.071a8.84 8.84 0 001.664-.302 4.67 4.67 0 001.336-.568c.375-.236.676-.507.91-.809.234-.302.411-.624.52-.977.115-.348.172-.712.172-1.09a3.148 3.148 0 00-.614-1.864zM189.1 44h-15.627v-.21a7.732 7.732 0 001.206-.271c.396-.128.713-.302.936-.527a.939.939 0 00.208-.369c.058-.158.099-.348.136-.558.031-.21.062-.43.083-.66.021-.23.036-.46.036-.68 0-.195.005-.461.011-.799.01-.338.015-.706.026-1.105.01-.4.01-.81.01-1.229v-6.029c0-.25-.01-.486-.036-.706a3.947 3.947 0 00-.11-.578.865.865 0 00-.218-.4c-.229-.24-.53-.42-.915-.547a5.433 5.433 0 00-1.207-.251v-.21h7.765v.21c-.214.03-.463.072-.755.128a3.467 3.467 0 00-.826.271 1.99 1.99 0 00-.671.537c-.188.23-.286.538-.307.917-.016.49-.026.936-.037 1.346-.01.404-.015.803-.026 1.197-.01.394-.01.799-.01 1.218v3.829c0 .363.005.737.01 1.126.011.383.011.813.011 1.29.015.45.036.875.062 1.279.026.404.109.706.255.906.063.072.193.138.39.21.193.071.432.128.707.179.276.051.578.092.9.128.323.036.65.05.973.05.13 0 .338-.004.618-.01a22.398 22.398 0 001.982-.132c.359-.041.671-.098.952-.17.65-.153 1.19-.358 1.617-.608a4.83 4.83 0 001.108-.87c.306-.328.566-.686.78-1.07.208-.384.416-.788.608-1.208l.245.061L189.1 44zM19.159 22.12c-.214-.025-.333-.327-.36-.85v-.143c0-1.34.334-4.14.91-7.272.573-3.25 1.436-6.848 2.44-9.556C23.079 1.766 24.135 0 25.259 0c.166 0 .312.026.452.092 1.15.543 1.53 2.237 1.53 4.33 0 1.791-.266 3.885-.552 5.788-.265 1.858-.551 3.317-.551 4.049 0 .26.026.425.12.496a.177.177 0 00.093.046c.12 0 .265-.189.79-.941 2.107-3.035 3.443-4.709 4.187-4.965a.979.979 0 01.333-.071c.405 0 .67.378.67 1.458 0 .732-.12 1.766-.384 3.199v.164c0 .399.12.66.478.66.12 0 .24-.026.385-.072.598-.21 2.512-1.458 3.801-2.897.073-.071.193-.143.287-.143.072 0 .145.046.145.164 0 .092.026.143.026.164 0 .025-.026.025-.073.046-1.482 1.366-3.443 2.728-4.067 2.943a2.395 2.395 0 01-.743.143c-.333 0-.671-.143-.837-.563a1.541 1.541 0 01-.073-.47c0-.072.026-.144.026-.21.239-2.048.452-3.25.452-3.84 0-.28-.047-.424-.192-.424-.026 0-.047 0-.094.026-.692.235-1.986 1.883-4.067 4.872-.645.942-1.076 1.34-1.409 1.34-.073 0-.12-.025-.192-.07-.193-.144-.286-.543-.286-1.132 0-.967.213-2.426.431-4.069.312-2.165.671-4.657.671-6.592 0-1.622-.265-2.845-1.004-3.152a.866.866 0 00-.332-.072c-.983 0-2.107 1.766-2.99 4.186-.984 2.682-1.816 6.285-2.414 9.51-.551 2.917-.743 5.46-.743 6.873v.4c0 .327.026.517.026.517.239 0 .884-2.094 1.648-4.801.645-2.375 3.13-13.271 3.13-13.271.048-.144.146-.19.266-.19.146 0 .333.144.333.4-.193 1.315-3.302 12.682-3.422 13.178-.78 2.856-1.524 5.021-1.955 5.021z"/><path d="M39.94 11.603c0 .046-.047.071-.12.163-.073.072-.12.118-.213.118h-.073c-.12 0-.145-.143-.145-.327v-.354c0-.117 0-.21-.047-.281-.811.916-1.316 1.622-1.815 2.329-.312.425-.552.752-.645.85-.12.117-.286.21-.432.21h-.026c-.145 0-.286-.144-.333-.308-.046-.092-.046-.235-.046-.425.026-.941 1.216-3.623 2.511-3.623.094 0 .193.025.287.046.213.071.384.21.55.378.313-.327.599-.542.791-.542.24 0 .385.164.385.563 0 .445-.146 1.152-.146 1.791 0 .66.146 1.223.692 1.438.146.046.286.072.453.072 1.003 0 2.413-.896 3.848-2.001.166-.118.213-.307.385-.425.12-.118.213-.143.286-.143a.21.21 0 01.12.046c.025.025.046.092.046.143 0 .072-.026.164-.073.19-1.555 1.269-3.395 2.328-4.612 2.328-.146 0-.286 0-.432-.046-.811-.235-.957-1.105-.957-2.001 0-.496.047-.988.047-1.387 0-.164-.026-.235-.047-.235-.12 0-.333.189-.598.445.192.307.312.634.359.942v.046zm-1.222-1.131c-1.004 0-2.034 2.942-2.034 3.25v.025s.026 0 .073-.072c.094-.071.193-.21.505-.634.525-.707 1.242-1.74 1.887-2.375a.573.573 0 00-.431-.194z"/><path d="M48.209 11.086c-.073 0-.146-.026-.146-.092 0 0 0-.916-.312-.916-.026 0-.047 0-.073.025-.572.282-1.482 1.786-1.482 2.308 0 .072.026.118.047.144a.11.11 0 00.093.046c.167-.026.312-.164.692-.471.572-.497 1.316-1.106 2.127-1.152h.073c.047 0 .12 0 .166.026.359.118.837.496 1.05 1.151 2.008-.752 2.944-.706 3.709-.987h.072c.094 0 .146.071.146.163 0 .046-.026.118-.093.144-.214.071-.313.092-.432.092H53.7c-.192-.026-.333-.026-.504-.026-.692 0-1.17.19-2.704.753.312 1.059.478 2.257.478 3.485 0 2.943-.957 6.05-3.084 7.861-.452.4-.957.681-1.435.824-.24.072-.479.093-.718.093a2.47 2.47 0 01-.692-.093 2.173 2.173 0 01-.884-.634c-.145-.144-.239-.353-.358-.589a5.266 5.266 0 01-.385-2.001c0-3.67 3.609-7.247 6.646-8.875l-.026-.046c-.193-.588-.453-.988-.718-1.085h-.145c-.744.046-1.436.635-1.987 1.085-.406.328-.744.614-1.004.635-.145 0-.239-.026-.312-.118a.833.833 0 01-.192-.542c0-.917.957-2.4 1.602-2.728a.907.907 0 01.405-.092c.624 0 .864.752.864 1.223 0 .092 0 .164-.026.235.026.082-.167.154-.313.154zM43.715 21.25c0 .635.12 1.27.36 1.884.072.21.191.399.285.517.24.26.505.445.79.542.193.072.406.092.599.092.213 0 .431-.025.645-.092.431-.143.884-.4 1.341-.778 1.96-1.674 2.824-4.729 2.824-7.58 0-1.197-.145-2.354-.431-3.342-2.897 1.556-6.413 5.18-6.413 8.757z"/><path d="M56.914 10.615c.359 0 .671.21.957.706.91 1.72 1.888 2.375 2.917 2.375 1.17 0 2.393-.896 3.589-2.073.145-.118.312-.425.452-.563a.178.178 0 01.094-.046c.093 0 .166.118.166.21 0 .025-.026.046-.026.072-1.29 1.34-2.891 2.543-4.446 2.543-1.15 0-2.247-.66-3.204-2.329-.145-.281-.332-.399-.525-.399-.957 0-2.273 2.636-2.439 2.99-.047.143-.166.21-.312.21-.213 0-.452-.165-.452-.426 0-.025.026-.046.026-.092l.764-2.871c.213-.799.12-.543.192-1.06.047-.445.406-.731.671-.731.167 0 .312.117.312.353 0 .117-.026.235-.072.379l-.957 2.963c.619-1.198 1.503-2.211 2.293-2.211z"/><path d="M65.355 12.166c-.094.025-.193.071-.193.143 0 .092-.026.164-.026.261 0 .798.551 1.413 1.17 1.484.094 0 .213.026.312.026 1.649 0 3.443-1.32 4.546-2.447.072-.092.093-.307.192-.378.047-.026.073-.046.12-.046.12 0 .213.143.213.235 0 .026 0 .046-.026.072-1.15 1.151-3.23 2.728-4.998 2.728-.146 0-.286-.026-.432-.046-.93-.144-1.46-.896-1.46-1.787v-.128c.025-.634.212-1.34.79-1.904.504-.516 1.216-.85 1.648-.85h.12c.452 0 .691.262.691.59a.875.875 0 01-.192.542c-.494.732-2.169 1.387-2.475 1.505zm1.96-1.74a.395.395 0 00.073-.19c0-.046-.026-.046-.073-.046-.333 0-1.508.706-1.695 1.341a4.918 4.918 0 001.695-1.106z"/><path d="M81.85 2.897a27.864 27.864 0 012.632-.143c.624 0 1.196.025 1.695.092 1.17.163 1.935.563 2.008 1.248a.362.362 0 01.026.164c0 .046 0 .092-.026.164a.294.294 0 01-.286.21c-.094 0-.193-.072-.213-.164v-.092c0-.072.025-.143.166-.235-.073-.543-.692-.824-1.722-.968a17.93 17.93 0 00-2.465-.164c-.644 0-1.341.046-2.007.093-2.891.26-5.622.941-8.32 1.504-.193.896-1.316 5.906-1.53 7.954-.072.634-.12 1.151-.12 1.576 0 1.06.24 1.505.765 1.505h.12c.863-.072 3.037-2.375 3.443-2.99.405-.634.644-.94.79-1.315.073-.092.166-.143.24-.143.093 0 .192.092.192.19 0 .071-.026.117-.073.143-.047.092-.24.26-.312.353-1.05 1.55-3.011 3.93-4.306 3.93-.312 0-.572-.143-.79-.47-.24-.4-.36-1.06-.36-1.904 0-1.315.266-3.107.625-4.919-.026-.752-.24-1.366-.573-1.857-.384-.543-1.05-1.014-1.648-1.27a.318.318 0 01-.166.046c-1.217.307-2.034.425-2.533.425-.718 0-.884-.21-.884-.425 0-.163.093-.327.145-.424 0-.026.026-.026.026-.046.026-.026.026-.047.026-.047h.026c.12-.117.385-.143.692-.143.863 0 2.153.282 2.585.425.811-.19 1.913-.445 3.203-.706.146-.681.286-1.295.432-1.812.452-1.74.957-2.493 1.29-2.493.072 0 .145.046.192.118a.336.336 0 01.047.19c0 .798-1.217 3.295-1.462 3.884 2.741-.568 5.513-1.228 8.43-1.484zM66.405 5.364c0 .143.146.281.67.281.453 0 1.171-.092 2.294-.353-.55-.143-1.435-.327-2.106-.327-.359 0-.645.046-.764.189-.047.072-.094.143-.094.21zm3.682-.02c.551.26 1.15.706 1.529 1.222.24.38.432.799.525 1.341.213-1.105.479-2.21.718-3.198a87.565 87.565 0 00-2.772.634z"/><path d="M77.737 10.118c.026 0 .047.026.073.026.145.072.192.235.192.353v.046s-.598 1.249-.598 2.19c0 .165.026.328.073.472.12.327.385.445.744.445 1.102 0 3.11-1.177 4.28-1.904.312-.19.572-.543.691-.614a.265.265 0 01.167-.072c.073 0 .12.026.12.092.025.026.025.072.025.092 0 .092-.047.19-.093.236-.765.563-3.921 2.354-5.477 2.354-.431 0-.743-.143-.863-.47-.145-.282-.192-.615-.192-.968 0-1.013.478-2.119.478-2.119.047-.061.26-.159.38-.159zm.572-1.059c0 .143-.094.235-.192.235-.1 0-.167-.092-.167-.235s.073-.235.167-.235c.093 0 .192.097.192.235z"/><path d="M85.366 10.968c0-.235.265-.798.265-1.203 0-.164-.047-.307-.213-.353-.047 0-.094.026-.192.046-.692.353-1.815 2.426-1.815 3.742 0 .66.265 1.13 1.003 1.13.12 0 .24-.025.385-.046 1.53-.281 4.114-2.61 4.712-3.152a.265.265 0 01.166-.072c.094 0 .167.072.167.19 0 .025 0 .071-.026.092-.718.87-3.157 2.896-5.045 3.152-.145.026-.265.026-.385.026-1.05 0-1.482-.732-1.482-1.648 0-1.367.931-3.178 2.153-3.767.12-.046.24-.092.359-.092h.073c.551.072.645.778.645 1.34 0 .426-.047.753-.047.753a.4.4 0 01-.385.307c-.146 0-.286-.117-.312-.353-.026-.02-.026-.046-.026-.092zm24.604-7.672c.026-.072.119-.118.192-.072.094.026.239.19.213.282 0 .025-1.123 3.552-2.272 7.462.239.21.478.425.743.68.047-.542.026-.895-.073-1.013 0 0-.046.026-.119.118-.073.072-.167.046-.239-.026-.047-.071-.073-.189 0-.235.239-.235.551-.261.691-.092.167.19.193.798.12 1.622.192.19.385.4.572.614 2.772-.21 6.313-1.668 8.014-4.12 1.961-2.8 1.17-6.638-2.533-7.672-4.113-1.151-10.619.917-13.152 3.297-1.388 1.294-2.486 2.917-1.841 4.237.094.21.645.282.864.425.192.589-.333.896-.765.425-1.196-1.648-.094-3.603 1.409-5.128 2.585-2.61 9.158-4.755 13.438-3.624 4.161 1.105 4.972 5.481 2.653 8.522-1.748 2.282-4.998 3.695-7.749 4.022 2.106 2.309 4.613 4.566 7.005 5.886 1.576.87 3.037 1.367 4.306 1.034.265-.072.432-.425.671-.543.452-.21.645.517.359.635-1.555.706-3.469.261-5.45-.824-2.465-1.34-5.045-3.695-7.177-6.05-.026-.045-.073-.071-.094-.092-.213 0-.431.026-.645.026a21.13 21.13 0 01-.384 1.976c-.453 2.093-1.196 4.401-1.795 5.696-.384.798-.811 1.06-1.149.87-.598-.379.312-4.52 1.41-8.757-2.752-.752-2.512-4.663.598-2.165.504-1.837 1.029-3.552 1.409-4.893.458-1.51.77-2.502.77-2.523zm-2.419 9.673c-1.149 4.095-2.106 8.05-1.627 8.353.119.092.358-.282.644-.896.599-1.27 1.269-3.603 1.748-5.67.119-.59.239-1.152.333-1.67-.401-.025-.76-.045-1.098-.117zm-.239-.542c.146-.471.265-.916.385-1.387-2.392-1.955-2.153.773-.385 1.387zm.697-1.131c-.12.424-.239.824-.333 1.223.312.071.671.117 1.051.143.026-.21.046-.425.072-.614-.291-.282-.551-.537-.79-.752zm1.17 1.156c0 .072 0 .144-.026.236.094-.026.167-.026.239-.026a3.802 3.802 0 00-.213-.21z"/><path d="M119.648 12.166c-.094.025-.193.071-.193.143 0 .092-.026.164-.026.261 0 .798.552 1.413 1.17 1.484.094 0 .214.026.312.026 1.649 0 3.443-1.32 4.546-2.447.073-.092.093-.307.192-.378.047-.026.073-.046.12-.046.119 0 .213.143.213.235 0 .026 0 .046-.026.072-1.149 1.151-3.23 2.728-4.998 2.728-.145 0-.286-.026-.431-.046-.931-.144-1.462-.896-1.462-1.787v-.128c.026-.634.214-1.34.791-1.904.504-.516 1.217-.85 1.648-.85h.12c.452 0 .692.262.692.59a.874.874 0 01-.193.542c-.489.732-2.163 1.387-2.475 1.505zm1.966-1.74a.401.401 0 00.072-.19c0-.046-.026-.046-.072-.046-.333 0-1.509.706-1.696 1.341a4.926 4.926 0 001.696-1.106z"/><path d="M127.828 10.968c0-.235.265-.798.265-1.203 0-.164-.047-.307-.213-.353-.047 0-.094.026-.192.046-.692.353-1.815 2.426-1.815 3.742 0 .66.265 1.13 1.003 1.13.12 0 .24-.025.385-.046 1.529-.281 4.114-2.61 4.712-3.152a.264.264 0 01.166-.072c.094 0 .167.072.167.19 0 .025 0 .071-.026.092-.718.87-3.157 2.896-5.045 3.152-.145.026-.265.026-.385.026-1.05 0-1.482-.732-1.482-1.648 0-1.367.931-3.178 2.153-3.767.12-.046.239-.092.359-.092h.073c.551.072.645.778.645 1.34 0 .426-.047.753-.047.753a.4.4 0 01-.385.307c-.146 0-.286-.117-.312-.353-.026-.02-.026-.046-.026-.092z"/><path d="M134.786 11.413c1.17 0 2.226-.092 2.725-.379.047-.025.073-.025.12-.025.094 0 .146.046.146.118a.256.256 0 01-.073.163c-.453.262-1.29.328-2.273.328-.504 0-1.03-.026-1.576-.046a3.77 3.77 0 01-.145.706c-.12.445-.286.87-.479 1.198-.166.281-.478.87-.884.87a.591.591 0 01-.405-.164c-.167-.235-.24-.542-.24-.896 0-.68.266-1.484.552-2.072-.406-.19-.645-.446-.645-.824v-.144a.973.973 0 01.192-.399l.094-.092h.026c.166-.164.431-.235.691-.235a1.4 1.4 0 01.625.143c.213.118.431.4.525.614l.047.118c.072.21.093.425.093.634 0 .118-.026.236-.026.354.312.01.624.03.91.03zm-2.943-1.105c0 .046-.026.092-.026.143 0 .282.192.496.504.66l.12-.21.073-.071h-.026l.093-.143c.094-.164.385-.497.645-.497.094 0 .193.046.265.143-.072-.163-.239-.353-.405-.424a.913.913 0 00-.453-.118c-.145 0-.286.046-.431.092-.24.118-.333.287-.359.425zm1.029 1.13c-.332.753-.572 1.767-.572 2.284 0 .189.047.307.12.307.12 0 .286-.19.572-.681a3.78 3.78 0 00.453-1.106c.072-.235.119-.47.145-.68a9.165 9.165 0 01-.718-.123zm.739-.045c0-.118.026-.236.026-.353 0-.19-.026-.38-.073-.517-.213.071-.431.379-.624.778.198.04.432.066.671.092z"/><path d="M138.182 11.014c-.047.21-.073.614-.073 1.085 0 1.034.094 2.375.214 2.426.431-.164 1.815-2.518 2.153-3.107-.931-.445-1.29-1.105-1.29-1.765 0-1.295 1.29-2.636 2.2-2.897a.91.91 0 01.265-.046c.333 0 .572.235.572.778 0 .706-.385 1.93-1.435 3.884.286.092.598.144.91.144.333 0 .691-.046 1.029-.144.12-.025.286-.189.406-.21.094 0 .146.047.146.118 0 .046-.047.118-.094.144a5.389 5.389 0 01-1.529.235 2.88 2.88 0 01-.931-.143c-.286.517-1.986 3.46-2.512 3.46h-.026c-.504-.072-.598-1.603-.598-2.636 0-.4 0-.732.026-.87 0-.19.047-1.623.047-1.648.073-.19.213-.282.359-.282.166 0 .333.164.333.543-.057.296-.005.27-.172.931zm3.849-3.603c0-.425-.167-.614-.432-.614-.073 0-.146.025-.213.046-.838.26-2.08 1.602-2.08 2.8 0 .634.332 1.248 1.242 1.622 1.077-1.991 1.483-3.194 1.483-3.854z"/><path d="M143.632 12.166c-.093.025-.192.071-.192.143 0 .092-.026.164-.026.261 0 .798.551 1.413 1.17 1.484.094 0 .213.026.312.026 1.649 0 3.443-1.32 4.545-2.447.073-.092.094-.307.193-.378.047-.026.073-.046.119-.046.12 0 .214.143.214.235 0 .026 0 .046-.026.072-1.15 1.151-3.23 2.728-4.998 2.728-.146 0-.286-.026-.432-.046-.931-.144-1.461-.896-1.461-1.787v-.128c.026-.634.213-1.34.79-1.904.505-.516 1.223-.85 1.649-.85h.125c.452 0 .691.262.691.59a.872.872 0 01-.192.542c-.499.732-2.174 1.387-2.481 1.505zm1.961-1.74a.394.394 0 00.073-.19c0-.046-.026-.046-.073-.046-.333 0-1.508.706-1.695 1.341a4.913 4.913 0 001.695-1.106z"/><path d="M153.243 7.58c.192 0 .359.118.525.327.572.778.931 2.4 1.482 2.897.359.307.838.445 1.529.445.525 0 1.17-.071 1.961-.21.192-.025.504-.235.691-.28.094.091.167.188.167.28 0 .093-.073.165-.213.19-.931.19-1.675.282-2.294.282-1.867 0-2.584-.917-3.609-3.317-.119-.143-.239-.21-.359-.21-1.269 0-2.772 7.13-2.772 7.155-.046.144-.265.21-.452.21s-.359-.072-.359-.21l.432-3.46c-.167-.092-.213-.327-.213-.517v-.056c0-.19 0-.517.239-1.034.073-.143.286-.235.478-.235.193 0 .385.092.385.307l-.452 2.78c.707-2.191 1.83-5.344 2.834-5.344z"/><path d="M160.368 9.177c.046 0 .072.025.093.025.146 0 .333.164.333.4 0 .046-.026.117-.047.189-.047.634-.405.68-.671 1.223-.213.445-.551 1.505-.551 2.375 0 .517.12.967.505 1.151a.653.653 0 00.286.072c1.648 0 4.566-5.39 5.881-5.39.432 0 .692.564.692 2.002 0 .353-.026.732-.047 1.177 1.269-.614 2.366-.916 4.015-1.249h.073c.119 0 .239.026.265.144-.026.163-.333.21-.504.235h-.552c-1.336.307-2.225.589-3.323 1.131-.265 2.897-1.269 5.814-2.512 8.424-.931 1.976-2.054 3.46-3.182 3.721a2.476 2.476 0 01-.432.046c-1.076 0-1.388-1.06-1.388-2.21 0-.989.239-2.022.405-2.544.811-2.472 2.892-5.553 6.579-7.437.093-.798.145-1.438.145-1.904 0-.87-.166-1.203-.431-1.203-1.051 0-3.875 5.318-5.809 5.318a.831.831 0 01-.406-.092c-.624-.261-.837-.967-.837-1.786 0-1.438.645-3.153.744-3.199.078-.266.41-.62.676-.62zm-.453 10.968c-.166.47-.405 1.576-.405 2.59 0 1.013.265 1.929 1.17 1.929.119 0 .239-.026.384-.046 1.03-.21 2.055-1.786 2.965-3.67 1.097-2.308 1.986-5.46 2.272-8.025-3.614 1.858-5.601 4.847-6.386 7.222z"/></g><defs><clipPath id="clip0"><path fill="#fff" d="M0 0h190v44H0z"/></clipPath></defs></svg>