<svg width="79" height="79" fill="none" xmlns="http://www.w3.org/2000/svg"><path d="M48.148 27.547c0 .303.243.548.543.548h13.133c.3 0 .543-.245.543-.548a.546.546 0 00-.543-.55H48.693a.55.55 0 00-.545.55zm7.879 7.958c0 .303.243.549.543.549h7.88c.3 0 .543-.246.543-.549a.546.546 0 00-.544-.549H56.57a.548.548 0 00-.543.55zm-2.082-15.367c.3 0 .543-.245.543-.548a.546.546 0 00-.543-.55h-2.627c-.3 0-.543.247-.543.55 0 .303.243.548.543.548h2.627zM37.643 35.505c0 .303.243.549.544.549h13.13a.546.546 0 00.544-.549.546.546 0 00-.543-.549H38.187c-.3 0-.544.246-.544.55zm7.11 36.591H19.802c-2.597 0-4.71-2.134-4.71-4.757V6.324a.546.546 0 00-.543-.548c-3.196 0-5.797 2.627-5.797 5.855 0 .303.243.549.543.549.3 0 .544-.246.544-.549a4.765 4.765 0 013.139-4.484l1.027-.369V67.34c0 3.229 2.6 5.856 5.796 5.856h24.95c.3 0 .544-.246.544-.549a.545.545 0 00-.542-.55z" fill="#646464"/><path d="M25.055 28.097H43.44c.3 0 .544-.246.544-.549A.546.546 0 0043.44 27H25.055c-.3 0-.543.245-.543.548 0 .303.243.549.543.549zm0-7.959h5.253c.3 0 .543-.245.543-.548a.546.546 0 00-.543-.55h-5.253c-.3 0-.543.247-.543.55a.546.546 0 00.543.548zm21.011-1.098H35.56c-.3 0-.544.245-.544.548 0 .303.244.549.544.549h10.506c.3 0 .543-.246.543-.549a.54.54 0 00-.543-.549z" fill="#646464"/><path d="M72.26 3.772C70.17 1.662 67.395.5 64.45.5h-49.9C8.48.5 3.522 5.487 3.5 11.617v.058c.015 3.95 2.133 7.638 5.525 9.62a.537.537 0 00.27.073.549.549 0 00.276-1.023c-3.067-1.795-4.975-5.13-4.981-8.701.007-5.539 4.476-10.045 9.96-10.045h49.9c5.493 0 9.962 4.514 9.962 10.062v55.71c0 .81-.223 1.62-.643 2.344a.556.556 0 00.192.752.538.538 0 00.743-.194c.52-.891.795-1.895.795-2.903V11.66a11.134 11.134 0 00-3.24-7.888z" fill="#646464"/><path d="M67.62 60.708c0-3.959-3.19-7.181-7.109-7.181-3.92 0-7.11 3.222-7.11 7.181 0 3.96 3.19 7.182 7.11 7.182 3.92 0 7.11-3.223 7.11-7.182zm-7.109 6.083c-3.32 0-6.022-2.73-6.022-6.083s2.703-6.082 6.022-6.082c3.32 0 6.022 2.728 6.022 6.082 0 3.355-2.7 6.083-6.022 6.083zm-2.754 3.876a.526.526 0 00-.27-.074.547.547 0 00-.474.275l-3.448 6.036-1.136-1.73a.534.534 0 00-.419-.246l-.814-.05-1.243-.074 3.498-6.117a.555.555 0 00-.199-.75.526.526 0 00-.27-.075.545.545 0 00-.473.276l-3.935 6.885a.56.56 0 00-.008.535c.09.169.256.276.445.287l2.662.162 1.47 2.246a.54.54 0 00.452.247h.027a.556.556 0 00.447-.277l3.89-6.805a.548.548 0 00-.202-.75zm10.792-2.468a.547.547 0 00-.473-.275.546.546 0 00-.525.409.555.555 0 00.055.416l3.462 6.053-1.243.075-.811.05a.553.553 0 00-.424.247l-.444.682-.687 1.05-3.436-6.015a.551.551 0 00-.474-.275.531.531 0 00-.27.073.554.554 0 00-.2.75l3.877 6.783c.092.16.263.266.446.275h.026a.543.543 0 00.456-.247l1.254-1.92.213-.323 2.657-.163a.539.539 0 00.448-.288.566.566 0 00-.008-.538l-3.9-6.819zM25.055 36.055h7.88c.3 0 .543-.245.543-.548a.546.546 0 00-.544-.549h-7.879c-.3 0-.543.246-.543.549a.546.546 0 00.543.548zm0 7.959h15.758c.3 0 .544-.246.544-.549a.546.546 0 00-.544-.548H25.055c-.3 0-.543.245-.543.548a.546.546 0 00.543.549zM39.13 59.326a1.016 1.016 0 00-.165-.205l-1.214 2.562c-.018.037-.035.075-.054.109a.56.56 0 00.028.53.54.54 0 00.462.26h5.252c.3 0 .543-.245.543-.548a.546.546 0 00-.543-.548h-4.33l.153-.908c.091-.54.046-.96-.132-1.252zm-13.248 1.626a.541.541 0 001.001-.071.548.548 0 00-.029-.418c-1.44-2.912-1.714-5.486-.75-7.062.4-.653 1.224-1.43 2.89-1.43.747 0 1.283.249 1.638.762 1.354 1.97-.143 7.242-.834 9.107-.09.24.002.516.216.656a.542.542 0 00.679-.075 32.323 32.323 0 011.74-1.626l1.27-1.097v2.336a.544.544 0 00.929.387c.603-.61 1.323-1.23 1.974-1.705l2.28-1.663a1.128 1.128 0 00-.701-.222c-.374 0-1.059.169-2.196.976l-1.056.749-.149-1.295c-.035-.303-.198-.536-.45-.642-.135-.056-.204-.084-.3-.084-.144 0-.418.062-.909.36l-1.474.893.322-1.705c.515-2.731.361-4.797-.445-5.974-.563-.82-1.416-1.237-2.533-1.237-1.692 0-3.046.693-3.815 1.95-1.168 1.91-.911 4.872.702 8.13zm33.7-17.1a.546.546 0 00.158-.388.546.546 0 00-.543-.549H46.066c-.3 0-.544.246-.544.549 0 .303.244.548.544.548h13.131a.525.525 0 00.385-.16z" fill="#646464"/></svg>