<svg width="79" height="79" fill="none" xmlns="http://www.w3.org/2000/svg"><path d="M67.367 50.024l2.687-.84a.486.486 0 00.309-.638l-3.106-7.989.402-.373 5.92-5.504a.485.485 0 00.024-.686l-.025-.026-6.321-5.875 3.106-7.986a.485.485 0 00-.277-.627l-.03-.012-8.302-2.588-.047-.542-.68-7.982a.493.493 0 00-.184-.343.477.477 0 00-.363-.1l-8.632 1.195-4.42-7.372a.484.484 0 00-.685-.155l-6.796 4.474-.447.293-7.24-4.767a.48.48 0 00-.673.137l-.012.02-4.42 7.372-8.627-1.195a.486.486 0 00-.547.414l-.003.026-.683 7.981-.046.542-8.296 2.589a.486.486 0 00-.309.638l3.107 7.988-6.33 5.878a.482.482 0 00-.024.686l.026.026 6.321 5.874-3.106 7.987a.485.485 0 00.277.627l.03.012 2.71.842L1.572 66.412a.485.485 0 00.5.731l13.762-2.502 2.493 12.474c.039.19.184.338.374.38a.543.543 0 00.074.007h.028a.487.487 0 00.404-.215l9.784-14.678 2.583 4.308a.484.484 0 00.415.236h.008a.486.486 0 00.267-.08l7.236-4.766 7.242 4.766a.48.48 0 00.671-.137c.004-.008.008-.013.01-.02l2.585-4.309 9.784 14.68a.486.486 0 00.497.205.483.483 0 00.381-.382l2.497-12.509 13.803 1.26.045.001a.483.483 0 00.403-.754L67.367 50.025zM28.155 62.116L19.053 75.77l-2.362-11.791a.486.486 0 00-.561-.384L2.969 65.99l9.644-15.666 4.636 1.446.047.542.68 7.981a.483.483 0 00.55.443l8.628-1.195 1.024 1.71.264.438-.287.427zm18.698 3.87l-7.086-4.67a.487.487 0 00-.533 0l-7.088 4.664-4.327-7.215a.486.486 0 00-.475-.231L18.896 59.7l-.711-8.337a.482.482 0 00-.34-.422l-8.112-2.53 3.03-7.81a.484.484 0 00-.121-.531l-6.174-5.745 6.18-5.746a.481.481 0 00.122-.532l-3.03-7.812 8.115-2.53a.486.486 0 00.341-.422l.712-8.338 8.439 1.168a.485.485 0 00.488-.231L31.73 3.39l.433-.724 7.073 4.667a.486.486 0 00.534 0l7.087-4.666 4.327 7.216a.495.495 0 00.487.23l8.436-1.167.712 8.338c.016.197.15.364.34.422l8.113 2.535-3.038 7.809a.486.486 0 00.121.532l6.179 5.745-6.18 5.745a.482.482 0 00-.122.532l3.03 7.812-8.11 2.53a.486.486 0 00-.341.423l-.712 8.337-8.438-1.162c-.019-.004-.04-.004-.063-.004a.499.499 0 00-.422.238l-4.322 7.209zm15.983-2.396l-.036-.001a.505.505 0 00-.49.394l-2.357 11.783-9.387-14.079.263-.438 1.022-1.706 8.627 1.195a.485.485 0 00.547-.414c.001-.01.001-.018.003-.026l.682-7.982.047-.541 4.648-1.45L76.05 64.8l-13.214-1.21z" fill="#646464"/><path d="M53.807 41.888l-.393-.677.665-.414c.186-.115.358-.252.511-.408l.01-.01a2.998 2.998 0 00.501-3.662l-.395-.677.665-.416a2.76 2.76 0 00.511-.407l.01-.01a2.998 2.998 0 00.501-3.663l-.395-.677.665-.416c.186-.115.358-.252.511-.407l.01-.01a3.012 3.012 0 00.909-2.167 3.077 3.077 0 00-3.073-3.077h-9.864v-5.983a5.622 5.622 0 00-1.65-4 5.61 5.61 0 00-3.996-1.66h-.01a.487.487 0 00-.485.486v6.353l-2.493 4.977-.14.11-5.376 4.303-.097-1.553a.478.478 0 00-.47-.446l-9.05-.005a.487.487 0 00-.485.485v19.405c0 .267.219.485.485.485h9.056a.487.487 0 00.485-.485v-.809h20.213a3.101 3.101 0 003.072-3.072 3.04 3.04 0 00-.408-1.493zM29.96 46.777h-8.085V28.343h8.085v18.434zm21.183-5.498c1.159 0 2.102.942 2.102 2.102a2.077 2.077 0 01-.637 1.497c-.382.385-.91.605-1.452.605H30.93V30.678l.304-.243 5.983-4.785a.46.46 0 00.13-.163l2.588-5.175a.495.495 0 00.05-.216v-6.093l1.077.378a4.678 4.678 0 013.127 4.424v6.465c0 .267.219.485.486.485h10.348c1.16 0 2.103.943 2.103 2.102a2.073 2.073 0 01-.637 1.498c-.382.385-.91.605-1.453.605h-4.379v.97h3.073c1.16 0 2.102.942 2.102 2.102a2.072 2.072 0 01-.639 1.497c-.381.385-.91.605-1.452.605h-4.377v.97h3.072c1.16 0 2.102.943 2.102 2.102a2.071 2.071 0 01-.638 1.498c-.382.385-.91.605-1.453.605H48.07v.97h3.073z" fill="#646464"/></svg>