<svg width="79" height="79" fill="none" xmlns="http://www.w3.org/2000/svg"><mask id="a" fill="#fff"><path d="M52.02 7.613h2.822c.639.002.657-.036.846-.673.265-.893.57-1.776.856-2.662l.111-.007c.146.436.294.872.438 1.31.189.57.384 1.139.558 1.714.078.26.236.324.481.32.92-.009 1.838-.003 2.757-.004h.414c-.12.162-.165.268-.245.327-.747.557-1.495 1.115-2.256 1.652-.25.176-.314.37-.223.648.313.948.623 1.898.932 2.847.01.032.004.07.008.172-.124-.052-.235-.075-.319-.136-.763-.556-1.527-1.111-2.278-1.684-.232-.178-.407-.171-.636.002-.743.563-1.498 1.11-2.252 1.658-.09.065-.197.102-.389.198l.683-2.144c.106-.333.247-.66.301-1 .026-.162-.062-.417-.187-.515-.744-.58-1.515-1.126-2.274-1.689-.084-.062-.142-.16-.211-.24.02-.032.042-.063.063-.094zM17.703 67.397h.594c.8 0 1.599-.01 2.399.005.33.005.512-.079.612-.44.241-.87.535-1.723.817-2.58.036-.112.124-.207.235-.388.194.603.359 1.112.521 1.621l.465 1.482c.08.255.268.303.506.302.907-.007 1.814-.002 2.72-.002h.376l.031.093c-.097.092-.187.196-.294.275-.739.55-1.479 1.1-2.223 1.64-.205.149-.263.302-.177.554.284.844.548 1.694.813 2.544.048.15.064.312.095.468l-.086.058c-.351-.254-.703-.507-1.053-.763-.473-.347-.95-.688-1.414-1.045-.239-.184-.431-.174-.672.01-.732.559-1.48 1.097-2.223 1.641-.082.06-.175.104-.264.155l-.085-.05c.09-.314.174-.63.274-.94.234-.72.488-1.435.702-2.161.034-.117-.057-.34-.16-.42-.748-.576-1.516-1.127-2.275-1.69-.1-.075-.184-.171-.276-.258l.042-.111zm41.445 7.118c-.095-.053-.197-.097-.284-.161-.735-.535-1.473-1.065-2.196-1.615-.23-.176-.397-.18-.63-.001-.74.567-1.497 1.112-2.25 1.662-.092.068-.2.112-.38.212.096-.34.163-.602.246-.858.24-.744.48-1.488.734-2.228.094-.275.02-.455-.207-.618a202.28 202.28 0 01-2.255-1.656c-.069-.051-.114-.135-.17-.203.088-.041.175-.115.263-.116.92-.01 1.838-.014 2.757-.003.286.004.46-.068.55-.377.243-.818.518-1.627.786-2.438.058-.176.138-.343.209-.515l.097.005c.151.45.306.896.452 1.348.166.515.327 1.033.484 1.55.093.306.27.44.605.433.882-.02 1.766-.01 2.65-.002.115.002.23.065.345.1-.073.081-.135.18-.222.244-.748.557-1.507 1.098-2.242 1.673-.114.09-.199.347-.16.487.223.8.49 1.587.738 2.38.065.208.118.422.177.633-.033.02-.065.043-.097.064zm14.69-54.137c-.771.572-1.447 1.077-2.126 1.575-1.013.742-.721.418-.422 1.534.196.731.466 1.441.697 2.163.023.072.003.157.003.32l-1.811-1.325c-.28-.204-.564-.404-.837-.618-.17-.134-.302-.119-.475.012-.753.57-1.517 1.125-2.28 1.684-.085.063-.179.115-.36.23.034-.229.036-.388.082-.534.268-.86.531-1.724.83-2.574.099-.282.01-.43-.192-.577-.802-.584-1.603-1.17-2.403-1.756-.027-.02-.045-.052-.118-.138.184-.03.325-.072.465-.073.86-.007 1.719-.022 2.578.002.384.011.552-.15.658-.504.282-.943.593-1.876.92-2.896.107.143.207.227.242.333.292.89.584 1.782.852 2.681.085.287.245.382.518.381.895-.004 1.79-.002 2.685.004.13.001.26.039.494.076zm-54.454-5.543c.105-.345.206-.692.317-1.034.226-.698.472-1.39.675-2.094.033-.113-.072-.329-.178-.41-.74-.57-1.496-1.114-2.246-1.668-.102-.076-.192-.169-.372-.328.215-.024.332-.048.45-.048.882-.002 1.765-.011 2.648.005.344.007.529-.075.632-.457.233-.87.532-1.723.814-2.579.036-.109.13-.198.242-.36.256.793.485 1.499.71 2.204.092.286.178.574.264.863.074.248.24.329.488.327.907-.01 1.814-.003 2.72-.003h.387c.03.042.06.084.092.125-.119.084-.238.164-.355.25-.74.545-1.477 1.098-2.223 1.636-.195.14-.253.281-.173.52.287.854.557 1.714.828 2.575.045.144.062.297.117.564-.243-.153-.4-.24-.543-.346-.674-.495-1.348-.99-2.016-1.496-.246-.186-.456-.19-.709.002-.742.563-1.498 1.109-2.25 1.66-.072.053-.153.094-.23.14a9.344 9.344 0 00-.089-.048zM64.74 55.657c.223-.012.336-.023.449-.023.906-.002 1.814-.02 2.72.006.346.009.495-.148.588-.443.289-.918.581-1.834.874-2.75.017-.053.049-.1.128-.26.163.46.3.823.422 1.192.212.639.427 1.277.612 1.924.076.266.22.334.465.333.918-.007 1.837-.004 2.755-.003.125 0 .25.012.374.017.042.058.083.115.126.172-.11.049-.231.08-.327.15-.755.544-1.498 1.108-2.262 1.64-.279.194-.282.396-.187.68.319.945.62 1.897.927 2.846.005.02-.011.045-.033.124-.093-.042-.19-.065-.266-.12-.753-.547-1.512-1.088-2.25-1.657-.264-.205-.46-.211-.725-.01-.75.574-1.516 1.124-2.279 1.681-.051.038-.12.053-.298.127.158-.52.282-.946.416-1.37.174-.55.344-1.102.537-1.646.113-.318.02-.516-.245-.703-.711-.503-1.411-1.026-2.112-1.544-.118-.087-.222-.195-.41-.363zM8.116 44.043c-.847-.621-1.637-1.194-2.42-1.778-.485-.362-.48-.37-.968-.008-.701.518-1.402 1.037-2.105 1.554a.517.517 0 01-.34.1c.138-.442.274-.885.413-1.327.177-.561.345-1.126.538-1.682.098-.283-.005-.453-.22-.61-.783-.569-1.563-1.142-2.343-1.715-.036-.026-.068-.06-.171-.153.194-.033.32-.073.447-.074.87-.006 1.742-.026 2.611.004.392.014.56-.161.665-.498.287-.919.582-1.834.875-2.75.01-.031.04-.055.13-.174.158.444.3.825.428 1.21.205.617.411 1.232.596 1.854.08.273.243.356.501.35.537-.01 1.074-.026 1.61-.006.433.015.865.08 1.381.132-.788.618-1.512 1.193-2.246 1.755-.443.34-.436.347-.26.86.307.899.587 1.807.875 2.712.015.043.003.093.003.244zm5.214 17.026c-.085-.046-.176-.082-.252-.138-.754-.549-1.51-1.094-2.255-1.655-.216-.163-.383-.17-.604-.002-.752.572-1.516 1.127-2.279 1.684-.081.06-.182.095-.36.185.1-.357.165-.63.252-.895.238-.732.481-1.462.73-2.19.081-.237.043-.416-.166-.567-.775-.56-1.546-1.126-2.312-1.697-.074-.055-.11-.163-.164-.247.096-.026.19-.077.286-.077.894-.004 1.79-.005 2.684.006.32.005.52-.06.621-.43.231-.834.519-1.651.79-2.473.052-.153.136-.294.25-.538.191.576.35 1.046.502 1.52.166.515.323 1.033.484 1.55.089.286.278.375.571.37 1-.015 2-.006 3.1-.006-.114.149-.166.26-.252.324-.747.558-1.495 1.114-2.255 1.655-.218.156-.294.319-.21.58.26.788.51 1.579.76 2.37.063.2.108.405.162.608l-.084.063zm23.019-51.66c.119-.394.235-.79.358-1.183.203-.643.426-1.279.6-1.93.03-.117-.102-.335-.22-.426-.748-.575-1.514-1.128-2.273-1.69-.069-.05-.127-.115-.272-.247.225-.028.345-.056.466-.056.894-.005 1.79-.011 2.684-.001.317.003.47-.137.562-.435.29-.955.6-1.902.932-2.941.108.138.208.216.241.316.29.88.583 1.759.84 2.648.094.327.275.412.572.41a153.55 153.55 0 012.649.004c.115.001.23.07.345.109-.072.083-.133.184-.22.249a164.94 164.94 0 01-2.194 1.615c-.24.174-.29.346-.183.644.323.906.603 1.828.895 2.745.02.063.003.137.003.304-.35-.246-.648-.448-.938-.66-.57-.416-1.126-.85-1.709-1.247-.108-.074-.354-.07-.464.006-.774.539-1.53 1.107-2.291 1.664-.083.061-.173.112-.26.168l-.123-.066zM13.34 26.822c-.254-.184-.51-.366-.763-.552-.568-.417-1.149-.82-1.697-1.263-.273-.22-.47-.179-.72.011-.693.528-1.398 1.043-2.1 1.56a1.06 1.06 0 01-.47.204c.097-.32.19-.64.292-.956.23-.71.466-1.416.697-2.126.065-.204.02-.36-.17-.496-.739-.529-1.466-1.073-2.196-1.613a.949.949 0 01-.32-.366c.122-.01.245-.03.367-.03.883-.002 1.766-.01 2.649.004.313.005.493-.067.59-.413.24-.844.527-1.674.803-2.508.05-.151.137-.29.253-.53.188.569.346 1.029.495 1.491.164.516.323 1.034.482 1.552.088.285.245.421.572.412.894-.026 1.79-.011 2.685-.008.122 0 .244.02.367.03l.028.094c-.396.297-.79.596-1.188.892-.432.32-.862.644-1.301.954-.221.155-.276.34-.194.592.252.777.5 1.557.746 2.337.068.215.123.434.184.651-.031.025-.06.05-.09.077zm30.558 46.121c-.785.58-1.57 1.159-2.357 1.737-.411.303-.455.319-.272.815.315.857.571 1.735.847 2.607.03.095.028.2.053.398-.68-.498-1.284-.937-1.885-1.379-.23-.17-.465-.335-.686-.518-.24-.198-.442-.192-.696.003-.776.598-1.57 1.173-2.358 1.755-.026.02-.064.024-.182.069.036-.21.048-.38.097-.536.26-.825.505-1.657.802-2.469.13-.354.008-.533-.251-.719-.72-.514-1.43-1.039-2.143-1.561-.094-.069-.178-.152-.335-.287.209-.026.34-.055.474-.056.87-.004 1.742-.02 2.611.006.387.011.545-.147.651-.503.279-.94.594-1.87.925-2.9.113.16.209.246.243.351.294.903.585 1.807.859 2.716.085.283.268.33.516.329a324.48 324.48 0 012.647 0c.136 0 .273.02.41.03l.03.112zm26.941-29.385c.162-.52.32-1.043.487-1.563.16-.503.35-.999.485-1.51.033-.13-.051-.364-.16-.448-.733-.57-1.488-1.11-2.235-1.663-.111-.082-.212-.18-.398-.34.219-.02.339-.04.46-.04.906 0 1.813-.005 2.72.008.291.005.445-.081.535-.39.25-.865.54-1.72.821-2.576.043-.131.124-.25.239-.48.192.582.353 1.061.508 1.544.166.515.323 1.032.488 1.547.078.244.223.36.502.355.906-.017 1.813-.006 2.72-.004.125 0 .25.01.489.022-.19.17-.293.277-.41.363-.693.51-1.384 1.023-2.085 1.522-.268.191-.371.394-.254.73.266.761.503 1.532.747 2.3.064.2.109.406.187.7-.16-.072-.235-.091-.292-.133-.77-.566-1.543-1.13-2.305-1.706-.245-.186-.443-.152-.673.021-.727.545-1.462 1.08-2.194 1.616-.093.068-.192.126-.29.188l-.092-.063z"/></mask><path d="M52.02 7.613h2.822c.639.002.657-.036.846-.673.265-.893.57-1.776.856-2.662l.111-.007c.146.436.294.872.438 1.31.189.57.384 1.139.558 1.714.078.26.236.324.481.32.92-.009 1.838-.003 2.757-.004h.414c-.12.162-.165.268-.245.327-.747.557-1.495 1.115-2.256 1.652-.25.176-.314.37-.223.648.313.948.623 1.898.932 2.847.01.032.004.07.008.172-.124-.052-.235-.075-.319-.136-.763-.556-1.527-1.111-2.278-1.684-.232-.178-.407-.171-.636.002-.743.563-1.498 1.11-2.252 1.658-.09.065-.197.102-.389.198l.683-2.144c.106-.333.247-.66.301-1 .026-.162-.062-.417-.187-.515-.744-.58-1.515-1.126-2.274-1.689-.084-.062-.142-.16-.211-.24.02-.032.042-.063.063-.094zM17.703 67.397h.594c.8 0 1.599-.01 2.399.005.33.005.512-.079.612-.44.241-.87.535-1.723.817-2.58.036-.112.124-.207.235-.388.194.603.359 1.112.521 1.621l.465 1.482c.08.255.268.303.506.302.907-.007 1.814-.002 2.72-.002h.376l.031.093c-.097.092-.187.196-.294.275-.739.55-1.479 1.1-2.223 1.64-.205.149-.263.302-.177.554.284.844.548 1.694.813 2.544.048.15.064.312.095.468l-.086.058c-.351-.254-.703-.507-1.053-.763-.473-.347-.95-.688-1.414-1.045-.239-.184-.431-.174-.672.01-.732.559-1.48 1.097-2.223 1.641-.082.06-.175.104-.264.155l-.085-.05c.09-.314.174-.63.274-.94.234-.72.488-1.435.702-2.161.034-.117-.057-.34-.16-.42-.748-.576-1.516-1.127-2.275-1.69-.1-.075-.184-.171-.276-.258l.042-.111zm41.445 7.118c-.095-.053-.197-.097-.284-.161-.735-.535-1.473-1.065-2.196-1.615-.23-.176-.397-.18-.63-.001-.74.567-1.497 1.112-2.25 1.662-.092.068-.2.112-.38.212.096-.34.163-.602.246-.858.24-.744.48-1.488.734-2.228.094-.275.02-.455-.207-.618a202.28 202.28 0 01-2.255-1.656c-.069-.051-.114-.135-.17-.203.088-.041.175-.115.263-.116.92-.01 1.838-.014 2.757-.003.286.004.46-.068.55-.377.243-.818.518-1.627.786-2.438.058-.176.138-.343.209-.515l.097.005c.151.45.306.896.452 1.348.166.515.327 1.033.484 1.55.093.306.27.44.605.433.882-.02 1.766-.01 2.65-.002.115.002.23.065.345.1-.073.081-.135.18-.222.244-.748.557-1.507 1.098-2.242 1.673-.114.09-.199.347-.16.487.223.8.49 1.587.738 2.38.065.208.118.422.177.633-.033.02-.065.043-.097.064zm14.69-54.137c-.771.572-1.447 1.077-2.126 1.575-1.013.742-.721.418-.422 1.534.196.731.466 1.441.697 2.163.023.072.003.157.003.32l-1.811-1.325c-.28-.204-.564-.404-.837-.618-.17-.134-.302-.119-.475.012-.753.57-1.517 1.125-2.28 1.684-.085.063-.179.115-.36.23.034-.229.036-.388.082-.534.268-.86.531-1.724.83-2.574.099-.282.01-.43-.192-.577-.802-.584-1.603-1.17-2.403-1.756-.027-.02-.045-.052-.118-.138.184-.03.325-.072.465-.073.86-.007 1.719-.022 2.578.002.384.011.552-.15.658-.504.282-.943.593-1.876.92-2.896.107.143.207.227.242.333.292.89.584 1.782.852 2.681.085.287.245.382.518.381.895-.004 1.79-.002 2.685.004.13.001.26.039.494.076zm-54.454-5.543c.105-.345.206-.692.317-1.034.226-.698.472-1.39.675-2.094.033-.113-.072-.329-.178-.41-.74-.57-1.496-1.114-2.246-1.668-.102-.076-.192-.169-.372-.328.215-.024.332-.048.45-.048.882-.002 1.765-.011 2.648.005.344.007.529-.075.632-.457.233-.87.532-1.723.814-2.579.036-.109.13-.198.242-.36.256.793.485 1.499.71 2.204.092.286.178.574.264.863.074.248.24.329.488.327.907-.01 1.814-.003 2.72-.003h.387c.03.042.06.084.092.125-.119.084-.238.164-.355.25-.74.545-1.477 1.098-2.223 1.636-.195.14-.253.281-.173.52.287.854.557 1.714.828 2.575.045.144.062.297.117.564-.243-.153-.4-.24-.543-.346-.674-.495-1.348-.99-2.016-1.496-.246-.186-.456-.19-.709.002-.742.563-1.498 1.109-2.25 1.66-.072.053-.153.094-.23.14a9.344 9.344 0 00-.089-.048zM64.74 55.657c.223-.012.336-.023.449-.023.906-.002 1.814-.02 2.72.006.346.009.495-.148.588-.443.289-.918.581-1.834.874-2.75.017-.053.049-.1.128-.26.163.46.3.823.422 1.192.212.639.427 1.277.612 1.924.076.266.22.334.465.333.918-.007 1.837-.004 2.755-.003.125 0 .25.012.374.017.042.058.083.115.126.172-.11.049-.231.08-.327.15-.755.544-1.498 1.108-2.262 1.64-.279.194-.282.396-.187.68.319.945.62 1.897.927 2.846.005.02-.011.045-.033.124-.093-.042-.19-.065-.266-.12-.753-.547-1.512-1.088-2.25-1.657-.264-.205-.46-.211-.725-.01-.75.574-1.516 1.124-2.279 1.681-.051.038-.12.053-.298.127.158-.52.282-.946.416-1.37.174-.55.344-1.102.537-1.646.113-.318.02-.516-.245-.703-.711-.503-1.411-1.026-2.112-1.544-.118-.087-.222-.195-.41-.363zM8.116 44.043c-.847-.621-1.637-1.194-2.42-1.778-.485-.362-.48-.37-.968-.008-.701.518-1.402 1.037-2.105 1.554a.517.517 0 01-.34.1c.138-.442.274-.885.413-1.327.177-.561.345-1.126.538-1.682.098-.283-.005-.453-.22-.61-.783-.569-1.563-1.142-2.343-1.715-.036-.026-.068-.06-.171-.153.194-.033.32-.073.447-.074.87-.006 1.742-.026 2.611.004.392.014.56-.161.665-.498.287-.919.582-1.834.875-2.75.01-.031.04-.055.13-.174.158.444.3.825.428 1.21.205.617.411 1.232.596 1.854.08.273.243.356.501.35.537-.01 1.074-.026 1.61-.006.433.015.865.08 1.381.132-.788.618-1.512 1.193-2.246 1.755-.443.34-.436.347-.26.86.307.899.587 1.807.875 2.712.015.043.003.093.003.244zm5.214 17.026c-.085-.046-.176-.082-.252-.138-.754-.549-1.51-1.094-2.255-1.655-.216-.163-.383-.17-.604-.002-.752.572-1.516 1.127-2.279 1.684-.081.06-.182.095-.36.185.1-.357.165-.63.252-.895.238-.732.481-1.462.73-2.19.081-.237.043-.416-.166-.567-.775-.56-1.546-1.126-2.312-1.697-.074-.055-.11-.163-.164-.247.096-.026.19-.077.286-.077.894-.004 1.79-.005 2.684.006.32.005.52-.06.621-.43.231-.834.519-1.651.79-2.473.052-.153.136-.294.25-.538.191.576.35 1.046.502 1.52.166.515.323 1.033.484 1.55.089.286.278.375.571.37 1-.015 2-.006 3.1-.006-.114.149-.166.26-.252.324-.747.558-1.495 1.114-2.255 1.655-.218.156-.294.319-.21.58.26.788.51 1.579.76 2.37.063.2.108.405.162.608l-.084.063zm23.019-51.66c.119-.394.235-.79.358-1.183.203-.643.426-1.279.6-1.93.03-.117-.102-.335-.22-.426-.748-.575-1.514-1.128-2.273-1.69-.069-.05-.127-.115-.272-.247.225-.028.345-.056.466-.056.894-.005 1.79-.011 2.684-.001.317.003.47-.137.562-.435.29-.955.6-1.902.932-2.941.108.138.208.216.241.316.29.88.583 1.759.84 2.648.094.327.275.412.572.41a153.55 153.55 0 012.649.004c.115.001.23.07.345.109-.072.083-.133.184-.22.249a164.94 164.94 0 01-2.194 1.615c-.24.174-.29.346-.183.644.323.906.603 1.828.895 2.745.02.063.003.137.003.304-.35-.246-.648-.448-.938-.66-.57-.416-1.126-.85-1.709-1.247-.108-.074-.354-.07-.464.006-.774.539-1.53 1.107-2.291 1.664-.083.061-.173.112-.26.168l-.123-.066zM13.34 26.822c-.254-.184-.51-.366-.763-.552-.568-.417-1.149-.82-1.697-1.263-.273-.22-.47-.179-.72.011-.693.528-1.398 1.043-2.1 1.56a1.06 1.06 0 01-.47.204c.097-.32.19-.64.292-.956.23-.71.466-1.416.697-2.126.065-.204.02-.36-.17-.496-.739-.529-1.466-1.073-2.196-1.613a.949.949 0 01-.32-.366c.122-.01.245-.03.367-.03.883-.002 1.766-.01 2.649.004.313.005.493-.067.59-.413.24-.844.527-1.674.803-2.508.05-.151.137-.29.253-.53.188.569.346 1.029.495 1.491.164.516.323 1.034.482 1.552.088.285.245.421.572.412.894-.026 1.79-.011 2.685-.008.122 0 .244.02.367.03l.028.094c-.396.297-.79.596-1.188.892-.432.32-.862.644-1.301.954-.221.155-.276.34-.194.592.252.777.5 1.557.746 2.337.068.215.123.434.184.651-.031.025-.06.05-.09.077zm30.558 46.121c-.785.58-1.57 1.159-2.357 1.737-.411.303-.455.319-.272.815.315.857.571 1.735.847 2.607.03.095.028.2.053.398-.68-.498-1.284-.937-1.885-1.379-.23-.17-.465-.335-.686-.518-.24-.198-.442-.192-.696.003-.776.598-1.57 1.173-2.358 1.755-.026.02-.064.024-.182.069.036-.21.048-.38.097-.536.26-.825.505-1.657.802-2.469.13-.354.008-.533-.251-.719-.72-.514-1.43-1.039-2.143-1.561-.094-.069-.178-.152-.335-.287.209-.026.34-.055.474-.056.87-.004 1.742-.02 2.611.006.387.011.545-.147.651-.503.279-.94.594-1.87.925-2.9.113.16.209.246.243.351.294.903.585 1.807.859 2.716.085.283.268.33.516.329a324.48 324.48 0 012.647 0c.136 0 .273.02.41.03l.03.112zm26.941-29.385c.162-.52.32-1.043.487-1.563.16-.503.35-.999.485-1.51.033-.13-.051-.364-.16-.448-.733-.57-1.488-1.11-2.235-1.663-.111-.082-.212-.18-.398-.34.219-.02.339-.04.46-.04.906 0 1.813-.005 2.72.008.291.005.445-.081.535-.39.25-.865.54-1.72.821-2.576.043-.131.124-.25.239-.48.192.582.353 1.061.508 1.544.166.515.323 1.032.488 1.547.078.244.223.36.502.355.906-.017 1.813-.006 2.72-.004.125 0 .25.01.489.022-.19.17-.293.277-.41.363-.693.51-1.384 1.023-2.085 1.522-.268.191-.371.394-.254.73.266.761.503 1.532.747 2.3.064.2.109.406.187.7-.16-.072-.235-.091-.292-.133-.77-.566-1.543-1.13-2.305-1.706-.245-.186-.443-.152-.673.021-.727.545-1.462 1.08-2.194 1.616-.093.068-.192.126-.29.188l-.092-.063z" stroke="#646464" stroke-width="2" mask="url(#a)"/><path d="M57.041 51.336l.002-1.26c0-.676-.013-.677-.695-.71-1.735-.088-3.313-.467-4.692-1.127-1.439-.688-2.707-1.706-3.766-3.023a8.594 8.594 0 01-1.545-2.926l-.008-.027h4.525l4.088-.001c.529 0 .59-.061.59-.593.002-.852.002-1.719.002-2.557v-.93c0-.424 0-.637-.099-.738-.098-.102-.306-.103-.718-.103h-8.539l.005-.025c.012-.06.02-.116.026-.166a.922.922 0 01.06-.255c.108-.241.211-.493.31-.736.234-.573.475-1.166.82-1.68 1.039-1.556 2.351-2.753 3.9-3.56 1.468-.765 3.192-1.2 5.124-1.298.58-.029.609-.058.61-.62v-3.913c-.001-.517-.06-.588-.477-.588-.035 0-.072 0-.112.002-2.241.06-4.335.493-6.225 1.287-1.926.81-3.691 2.015-5.247 3.585a14.418 14.418 0 00-3.935 7.378 14.152 14.152 0 00.848 8.237c1.172 2.79 3.189 5.166 5.834 6.873a16.556 16.556 0 008.81 2.639h.014c.178 0 .301-.038.377-.115.08-.08.116-.207.115-.397-.006-.884-.004-1.783-.002-2.653zm-.674-1.236v3.777l-.024-.003a39.831 39.831 0 00-.665-.06c-.482-.043-.937-.082-1.397-.159-2.318-.387-4.388-1.153-6.155-2.273-1.827-1.16-3.375-2.732-4.6-4.67-1.603-2.54-2.318-5.432-2.065-8.364.252-2.928 1.449-5.675 3.459-7.945 2.657-3.001 6.106-4.741 10.25-5.17.254-.027.508-.044.777-.061l.396-.028.023-.001v3.773l-.019.003c-.22.029-.441.053-.655.078-.475.053-.922.103-1.37.2-1.875.404-3.5 1.108-4.833 2.09-1.4 1.033-2.52 2.407-3.328 4.085-.265.55-.441 1.155-.611 1.74-.026.088-.05.175-.076.26-.075.258-.079.413-.01.505.07.096.225.136.517.136h2.602l5.748-.001h.045c.513 0 .529.016.529.574 0 .256-.001.512-.003.767-.002.6-.006 1.218.01 1.827.004.174-.024.282-.092.352-.069.07-.177.1-.361.1h-.007c-1.241-.005-2.576-.007-4.325-.007l-2.075.001-1.738.001c-.396 0-.626.022-.71.14-.085.12-.03.35.101.73.617 1.785 1.577 3.286 2.853 4.46 1.228 1.132 2.782 1.992 4.62 2.554.648.199 1.34.295 2.01.388.31.042.629.087.94.14l.14.027.08.016.017.003v.015h.002zM38.778 28.976c.001-1.125 0-2.355-.002-3.87 0-.531-.063-.604-.511-.604l-.107.001c-1.937.046-3.784.386-5.489 1.014a16.603 16.603 0 00-4.833 2.8c-4.602 3.795-6.438 9.847-4.676 15.42 1.015 3.213 3.062 5.941 5.919 7.89a16.72 16.72 0 009.25 2.871h.005c.152 0 .261-.035.333-.107.077-.077.113-.2.111-.376-.003-.502-.002-1.013-.001-1.507v-.963c0-.495.002-.99 0-1.484 0-.643-.025-.669-.672-.694-2.614-.103-4.922-.945-6.86-2.501-2.176-1.747-3.46-4.168-3.618-6.817-.156-2.624.817-5.15 2.74-7.112 2.03-2.074 4.647-3.187 7.778-3.31.591-.025.632-.067.633-.651zm-.677-3.78v3.698l-.018.003c-.268.042-.54.078-.8.113-.584.077-1.135.151-1.681.29-1.907.485-3.535 1.272-4.841 2.337-1.377 1.124-2.433 2.59-3.139 4.358a9.465 9.465 0 00-.322 6.097c.564 2.027 1.754 3.828 3.441 5.206 1.947 1.59 4.24 2.497 6.816 2.695.112.009.224.02.343.031l.178.017.02.002v3.819l-.023-.002a35.006 35.006 0 00-.676-.058 15.345 15.345 0 01-1.403-.154c-2.365-.404-4.469-1.195-6.255-2.35-1.849-1.197-3.407-2.818-4.632-4.818a13.308 13.308 0 01-1.921-7.958 13.449 13.449 0 013.031-7.618c1.437-1.748 3.131-3.117 5.037-4.07 1.852-.925 3.956-1.485 6.254-1.66.06-.004.122-.007.2-.007l.173.003.197.002h.022v.023H38.1z" fill="#646464"/></svg>